<?xml version="1.0" encoding="UTF-8"?>
<svg version="1.1" xmlns="http://www.w3.org/2000/svg" width="3333" height="3333">
<path d="M0 0 C191.07 0 382.14 0 579 0 C574.9880584 4.68059853 571.15373723 8.91005191 566.625 13 C566.05265625 13.52271484 565.4803125 14.04542969 564.890625 14.58398438 C561.35497238 17.80366804 557.77396745 20.96657051 554.15625 24.09375 C551.22759638 26.68284958 548.36601823 29.34194681 545.5 32 C541.43985037 35.7655356 537.34588598 39.47220026 533.15625 43.09375 C530.22759638 45.68284958 527.36601823 48.34194681 524.5 51 C520.43985037 54.7655356 516.34588598 58.47220026 512.15625 62.09375 C509.22759638 64.68284958 506.36601823 67.34194681 503.5 70 C499.43985037 73.7655356 495.34588598 77.47220026 491.15625 81.09375 C488.22759638 83.68284958 485.36601823 86.34194681 482.5 89 C478.43985037 92.7655356 474.34588598 96.47220026 470.15625 100.09375 C467.22759638 102.68284958 464.36601823 105.34194681 461.5 108 C457.43985037 111.7655356 453.34588598 115.47220026 449.15625 119.09375 C446.22759337 121.68285224 443.36610855 124.34204004 440.5 127 C436.90745665 130.32984952 433.3108854 133.64805753 429.625 136.875 C429.02042969 137.40867187 428.41585937 137.94234375 427.79296875 138.4921875 C426.54188953 139.54429334 425.24800822 140.54664563 423.92578125 141.5078125 C423.26964844 142.00023437 422.61351562 142.49265625 421.9375 143 C421.34839844 143.4125 420.75929688 143.825 420.15234375 144.25 C418.597569 146.61114945 419.11718186 148.24771812 419.5599823 150.94366455 C420.37496101 154.75230593 421.63281305 158.40289922 422.88671875 162.0859375 C423.33420219 163.42345566 423.33420219 163.42345566 423.79072571 164.78799438 C424.75069871 167.6522523 425.71903159 170.513605 426.6875 173.375 C427.28763702 175.16388557 427.88724925 176.95294729 428.48632812 178.7421875 C432.51675552 190.7534392 436.61781549 202.74054383 440.7165947 214.7285862 C447.75899807 235.32663134 454.73160154 255.94759114 461.67492676 276.57922363 C464.95414879 286.32312589 468.23690074 296.06583937 471.51953125 305.80859375 C471.84517941 306.7751804 472.17082756 307.74176704 472.50634384 308.7376442 C478.23731108 325.74751404 483.98651959 342.75112105 489.75 359.75 C497.45389542 382.47364943 505.13850492 405.20373729 512.8125 427.9375 C513.36606684 429.5773728 513.91963536 431.21724503 514.47320557 432.8571167 C514.74715904 433.66866463 515.02111252 434.48021255 515.30336761 435.31635284 C516.68530348 439.41012554 518.06725442 443.50389316 519.44921875 447.59765625 C519.72288521 448.40834312 519.99655167 449.21903 520.27851105 450.05428314 C526.22275628 467.66273869 532.17299613 485.26916573 538.125 502.875 C538.62114471 504.34260047 539.11728932 505.81020098 539.61343384 507.27780151 C541.59269255 513.13242944 543.5719973 518.98704179 545.55137634 524.84162903 C549.03197001 535.13649759 552.51220963 545.43148577 555.9921875 555.7265625 C556.23992039 556.45944866 556.48765327 557.19233482 556.74289322 557.94742966 C557.99459558 561.65043732 559.24629203 565.35344697 560.49798584 569.05645752 C562.74866573 575.71485888 564.99939788 582.37324257 567.25012589 589.03162766 C568.50008605 592.72941772 569.75004285 596.42720892 571 600.125 C571.49999998 601.60416667 571.99999998 603.08333334 572.5 604.5625 C597.25 677.78125 622 751 672.25000858 899.65627575 C672.74997968 901.13535668 673.24995107 902.61443752 673.74992275 904.09351826 C675.00036729 907.79274584 676.25080679 911.49197511 677.50123596 915.19120789 C679.74592236 921.83180587 681.99064277 928.47239234 684.2355547 935.11291409 C685.47867625 938.79011129 686.72176785 942.46731862 687.96484375 946.14453125 C688.33445378 947.2378926 688.33445378 947.2378926 688.71153069 948.35334206 C692.31714884 959.01949677 695.92102213 969.68623997 699.52400589 980.35328484 C701.86981318 987.29814397 704.21602251 994.24286728 706.5625 1001.1875 C706.81416931 1001.93234272 707.06583862 1002.67718544 707.32513428 1003.44459915 C715.84015353 1028.64451718 724.39185244 1053.8317176 733 1079 C735.8108444 1075.65941754 737.36594124 1072.04914366 738.94140625 1068.02734375 C739.2214299 1067.32796188 739.50145355 1066.62858002 739.78996277 1065.90800476 C740.39908596 1064.38579419 741.00566144 1062.86256222 741.60998535 1061.33843994 C743.25363974 1057.19539029 744.91801916 1053.06068779 746.58203125 1048.92578125 C747.10904129 1047.61489532 747.10904129 1047.61489532 747.646698 1046.27752686 C751.91563355 1035.68555692 756.33041299 1025.15478731 760.75 1014.625 C761.14140167 1013.69162811 761.53280334 1012.75825623 761.93606567 1011.79660034 C763.70373339 1007.58181487 765.47276817 1003.36760444 767.24511719 999.15478516 C767.53656616 998.44557922 767.82801514 997.73637329 768.1282959 997.00567627 C768.94312929 995.13085201 769.89573529 993.31761029 770.85644531 991.51318359 C772.42749856 986.68665579 771.51687452 983.73965146 770 979 C769.68930573 978.02113831 769.37861145 977.04227661 769.0585022 976.03375244 C767.91516771 972.5534246 766.72297928 969.09280433 765.51953125 965.6328125 C765.06984055 964.32876508 764.62057087 963.02457241 764.17169189 961.72024536 C762.97277971 958.24058772 761.76776345 954.76307347 760.56148148 951.28596497 C759.30167971 947.65117883 758.04763306 944.01440743 756.79272461 940.37792969 C750.95435782 923.46887095 745.07663226 906.57350702 739.16616821 889.68951416 C734.22117857 875.5634335 729.37407281 861.40562879 724.56057739 847.23425293 C719.93934834 833.63282611 715.24758478 820.05781634 710.5 806.5 C705.10941601 791.10595208 699.80796379 775.68381213 694.5625 760.23974609 C689.94061939 746.63649229 685.24822574 733.05964674 680.5 719.5 C675.10941601 704.10595208 669.80796379 688.68381213 664.5625 673.23974609 C659.94061939 659.63649229 655.24822574 646.05964674 650.5 632.5 C645.10941601 617.10595208 639.80796379 601.68381213 634.5625 586.23974609 C629.94061939 572.63649229 625.24822574 559.05964674 620.5 545.5 C615.10941601 530.10595208 609.80796379 514.68381213 604.5625 499.23974609 C599.94061939 485.63649229 595.24822574 472.05964674 590.5 458.5 C585.43059238 444.02314479 580.43318592 429.52383637 575.5 415 C570.72935691 400.95675044 565.90287758 386.93512527 561 372.9375 C554.50843218 354.40057475 548.11965779 335.82906439 541.75 317.25 C539.75799819 311.44004048 537.76590153 305.63011352 535.7734375 299.8203125 C535.52791264 299.10436857 535.28238777 298.38842464 535.02942276 297.65078545 C529.41213467 281.27265983 523.75849612 264.90715754 518.09863281 248.54370117 C513.80750453 236.13571527 509.52655889 223.72429391 505.2578125 211.30859375 C504.77152347 209.89448761 504.28522589 208.48038441 503.79891968 207.06628418 C501.6756081 200.89169172 499.55280482 194.71692697 497.43252373 188.54129314 C496.77563829 186.62855118 496.11825539 184.71598103 495.46066284 182.80348206 C494.65844212 180.47024097 493.85705245 178.1367139 493.05667114 175.80284119 C491.51141985 171.31140971 489.95376236 166.83751502 488.23779297 162.40820312 C486.94833258 158.85773625 486.45970063 157.42746006 488 154 C490.2734375 151.81640625 490.2734375 151.81640625 493.375 149.5625 C493.94589355 149.14129883 494.51678711 148.72009766 495.10498047 148.28613281 C496.37361124 147.35234013 497.64682744 146.42475483 498.92382812 145.50244141 C501.10122139 143.92675019 503.2627482 142.33108769 505.421875 140.73046875 C509.44509443 137.75060395 513.47843566 134.78481011 517.51513672 131.82324219 C521.57528376 128.84415218 525.63211556 125.86056924 529.6875 122.875 C530.47850098 122.29266602 531.26950195 121.71033203 532.08447266 121.11035156 C537.07506421 117.43155498 542.04526362 113.72691521 547 110 C556.7352101 102.67724863 566.55491746 95.46963762 576.37207031 88.25732422 C584.4345816 82.33333469 592.48794656 76.39886656 600.48632812 70.38842773 C602.15159445 69.13737538 603.81824546 67.88816387 605.48632812 66.64086914 C609.78450062 63.42610285 614.06043901 60.1868951 618.30859375 56.90625 C620.01807826 55.60396854 621.72770853 54.3018784 623.4375 53 C624.22447266 52.38189453 625.01144531 51.76378906 625.82226562 51.12695312 C626.56025391 50.56943359 627.29824219 50.01191406 628.05859375 49.4375 C628.70111084 48.94121094 629.34362793 48.44492187 630.00561523 47.93359375 C632.73864172 46.65423357 634.17123846 47.0669045 637 48 C638.74169922 49.13574219 638.74169922 49.13574219 640.3046875 50.546875 C640.88863281 51.0625 641.47257813 51.578125 642.07421875 52.109375 C642.66847656 52.65078125 643.26273438 53.1921875 643.875 53.75 C648.41174831 57.81811717 652.9815811 61.53459564 658 65 C656.59722694 69.20831917 653.55583951 70.59894122 650 72.9375 C648.52532315 73.92861926 647.05138785 74.9208426 645.578125 75.9140625 C644.81693359 76.42485352 644.05574219 76.93564453 643.27148438 77.46191406 C639.72812425 79.86122283 636.23892186 82.33498553 632.75 84.8125 C626.51419605 89.22880606 620.26270482 93.62192486 614 98 C605.67586978 103.82107566 597.37081561 109.66854264 589.07666016 115.53222656 C585.55232484 118.02320986 582.02605299 120.51144903 578.5 123 C577.08332432 123.99998722 575.66665764 124.99998722 574.25 126 C555.83333333 139 537.41666667 152 519 165 C534.23660784 211.03808986 549.84309874 256.95660796 565.5509491 302.83580017 C567.59262372 308.80192645 569.62382619 314.77157643 571.65234375 320.7421875 C578.91872485 342.15811407 578.91872485 342.15811407 586.33203125 363.5234375 C586.60845459 364.31012817 586.88487793 365.09681885 587.16967773 365.90734863 C587.73918947 367.52779391 588.30870862 369.14823658 588.87823486 370.76867676 C598.47848004 398.09405431 607.66695224 425.55917398 616.912323 453.00604248 C617.19929928 453.85797935 617.48627556 454.70991623 617.78194809 455.58766937 C618.35559564 457.29066848 618.92921688 458.99367646 619.50281143 460.69669342 C625.17239425 477.52863034 630.89352707 494.34248699 636.65356445 511.14367676 C638.65729851 516.99105362 640.64838736 522.8426823 642.63671875 528.6953125 C649.9106961 550.1347501 649.9106961 550.1347501 657.33203125 571.5234375 C657.60845459 572.31012817 657.88487793 573.09681885 658.16967773 573.90734863 C658.73918947 575.52779391 659.30870862 577.14823658 659.87823486 578.76867676 C669.47848004 606.09405431 678.66695224 633.55917398 687.912323 661.00604248 C688.19929928 661.85797935 688.48627556 662.70991623 688.78194809 663.58766937 C689.35559564 665.29066848 689.92921688 666.99367646 690.50281143 668.69669342 C696.17239425 685.52863034 701.89352707 702.34248699 707.65356445 719.14367676 C709.65729851 724.99105362 711.64838736 730.8426823 713.63671875 736.6953125 C720.9106961 758.1347501 720.9106961 758.1347501 728.33203125 779.5234375 C728.60845459 780.31012817 728.88487793 781.09681885 729.16967773 781.90734863 C729.73918947 783.52779391 730.30870862 785.14823658 730.87823486 786.76867676 C738.62703497 808.82424768 746.09822887 830.97195432 753.5625 853.125 C754.15848518 854.89358614 754.75447312 856.66217135 755.35046387 858.43075562 C757.38437374 864.46660859 759.41811587 870.50251809 761.45151901 876.53854179 C765.83078141 889.53792182 770.21287077 902.53629443 774.63497925 915.5211792 C775.20267678 917.18900225 775.76938076 918.85716389 776.33499146 920.5256958 C777.08518714 922.73812172 777.83886561 924.94932652 778.59375 927.16015625 C778.99271484 928.33199463 779.39167969 929.50383301 779.80273438 930.71118164 C781.07642018 934.20992174 782.50292369 937.59176821 784 941 C784.34680817 940.03688148 784.34680817 940.03688148 784.70062256 939.05430603 C787.71578671 930.68157059 790.73238366 922.30935191 793.75 913.9375 C793.99683029 913.25270443 794.24366058 912.56790886 794.49797058 911.86236191 C801.71741804 891.83431081 808.96483041 871.81675688 816.25 851.8125 C823.34849537 832.31953473 830.40171116 812.81080458 837.4206543 793.2890625 C838.15802244 791.2382748 838.89540842 789.18749352 839.6328125 787.13671875 C839.99532608 786.12854095 840.35783966 785.12036316 840.7313385 784.08163452 C844.66195654 773.15385072 848.61071342 762.23264338 852.5625 751.3125 C852.91162445 750.34771729 853.2607489 749.38293457 853.62045288 748.38891602 C855.37710925 743.5347473 857.13404487 738.68067973 858.89111328 733.82666016 C862.07451735 725.03186324 865.25539704 716.23615323 868.43649292 707.44052124 C870.20756099 702.54364431 871.97878848 697.64682504 873.75 692.75 C874.4583341 690.79166694 875.16666743 688.83333361 875.875 686.875 C910.9375 589.9375 946 493 1033.125 252.125 C1033.47556961 251.15577606 1033.82613922 250.18655212 1034.18733215 249.18795776 C1034.89621962 247.22809661 1035.60511245 245.2682374 1036.31401062 243.30838013 C1038.07640958 238.43593823 1039.83871764 233.5634635 1041.60083008 228.69091797 C1044.88862472 219.59989562 1048.1773011 210.50919521 1051.46908569 201.4196167 C1053.00610243 197.1752957 1054.54261968 192.93079395 1056.07910156 188.6862793 C1056.8042766 186.68342251 1057.52969019 184.68065207 1058.25537109 182.67797852 C1062.55786607 170.80410474 1066.81938142 158.91736907 1071 147 C1064.53110369 139.97045242 1058.04045877 132.96310147 1051.5 126 C1046.46871229 120.64310591 1041.46205788 115.26514381 1036.48388672 109.85888672 C1030.35611415 103.20803653 1024.17549651 96.60650172 1018 90 C1010.82482073 82.32404486 1003.65768087 74.64159878 996.53857422 66.91357422 C992.11653708 62.11706089 987.66373938 57.34962387 983.20874023 52.58374023 C979.47816409 48.59046914 975.76372894 44.5829724 972.0625 40.5625 C967.56899921 35.68246151 963.04127459 30.83559517 958.5 26 C953.75893438 20.94852189 949.02228366 15.89317913 944.3125 10.8125 C943.83167969 10.29623047 943.35085938 9.77996094 942.85546875 9.24804688 C940.08347082 6.25032911 937.5600361 3.20004512 935 0 C1122.77 0 1310.54 0 1504 0 C1497.25171749 7.87299627 1497.25171749 7.87299627 1494.67602539 10.42163086 C1494.09844986 10.99590317 1493.52087433 11.57017548 1492.92579651 12.16184998 C1492.32251022 12.75683792 1491.71922394 13.35182587 1491.09765625 13.96484375 C1490.13647133 14.92034874 1490.13647133 14.92034874 1489.15586853 15.89515686 C1486.4463554 18.58850745 1483.73088051 21.27581685 1481.01586914 23.96362305 C1479.02017609 25.94107086 1477.02761678 27.92163972 1475.03515625 29.90234375 C1474.13326317 30.79178932 1474.13326317 30.79178932 1473.21315002 31.69920349 C1470.30429382 34.5915139 1467.51595789 37.52567876 1464.85327148 40.64672852 C1460.20828747 46.01816987 1455.13891296 50.97226316 1450.10287476 55.97229004 C1448.27487821 57.78735566 1446.45017044 59.60567301 1444.6262207 61.42480469 C1440.09843857 65.93931916 1435.56519193 70.44833337 1431.03210449 74.95751953 C1427.19033661 78.77945616 1423.35069298 82.60350376 1419.51376343 86.43029785 C1417.72844455 88.20920255 1415.94010861 89.98503396 1414.15161133 91.76074219 C1413.04233038 92.86638589 1411.93319223 93.9721729 1410.82421875 95.078125 C1410.09300308 95.80159119 1410.09300308 95.80159119 1409.34701538 96.53967285 C1407.32165799 98.56472691 1405.34878993 100.5651497 1403.55467167 102.80194842 C1399.65368863 107.6324684 1395.56713004 110.80198703 1390.33156914 114.09441071 C1372.53006644 125.53413304 1354.68873245 141.4764954 1349.84920807 162.87170048 C1344.34918595 191.71724359 1345.92717783 222.22426947 1346.41559303 251.43240752 C1346.58868386 261.79167457 1346.64930668 272.14572695 1346.61411285 282.50637436 C1346.61178821 283.20883178 1346.60946356 283.91128921 1346.60706848 284.63503322 C1346.59475897 288.21832587 1346.58084015 291.80161044 1346.56637097 295.38489494 C1346.46564548 321.17497612 1346.58661288 346.96008193 1346.83076477 372.74900246 C1347.07173678 398.25815417 1347.22033199 423.76508232 1347.2462616 449.27539635 C1347.24754486 450.46817099 1347.24754486 450.46817099 1347.24885405 451.68504208 C1347.25665856 458.94903045 1347.26345427 466.21301945 1347.26899037 473.47700991 C1347.28283063 491.52739439 1347.31164897 509.57773861 1347.35103607 527.62808514 C1347.35281904 528.44966945 1347.35460201 529.27125376 1347.35643902 530.11773456 C1347.44436534 569.99128574 1347.70675388 609.86345122 1347.98046875 649.73608398 C1348.36098238 705.18667924 1348.61556157 760.63582253 1348.71875 816.08764648 C1348.72199833 817.81599051 1348.72525042 819.54433453 1348.72850627 821.27267855 C1348.74471411 829.89107719 1348.76065767 838.50947631 1348.77647576 847.12787567 C1348.77803784 847.9784922 1348.77959992 848.82910872 1348.78120934 849.70550151 C1348.78907182 853.99366757 1348.79687009 858.28183374 1348.80456217 862.57000011 C1348.90269418 917.13743185 1349.08638167 971.70460738 1349.29691103 1026.27171144 C1349.29995948 1027.06202767 1349.30300793 1027.85234389 1349.30614876 1028.6666091 C1349.32460282 1033.44949877 1349.32460282 1033.44949877 1349.34308408 1038.23238834 C1349.38624931 1049.41517229 1349.42601787 1060.59796358 1349.4632043 1071.78076895 C1349.57774153 1106.14009805 1349.72213361 1140.49884972 1349.96737915 1174.85752437 C1349.98749084 1177.69017056 1350.00749652 1180.52281747 1350.02742767 1183.35546494 C1350.03234149 1184.05063361 1350.0372553 1184.74580228 1350.04231802 1185.46203667 C1350.11939567 1196.47696579 1350.1636302 1207.49176647 1350.19453192 1218.50691146 C1350.22568953 1229.33225306 1350.29377996 1240.15684845 1350.3987702 1250.98172786 C1350.45403159 1256.77383091 1350.49358851 1262.56488045 1350.48994428 1268.35727177 C1350.48704563 1273.62366749 1350.52980788 1278.88761681 1350.60949922 1284.15339232 C1350.63016705 1286.04913207 1350.63408625 1287.94514487 1350.61945575 1289.84094082 C1350.30821426 1300.01384285 1350.30821426 1300.01384285 1354.20716923 1309.05609705 C1356.69694152 1311.31831451 1359.19091498 1313.16090814 1362 1315 C1363.06471374 1315.98053572 1364.1045598 1316.9897526 1365.1015625 1318.0390625 C1368.93933832 1321.97189159 1372.75045957 1325.87461466 1376.9375 1329.4375 C1380.476791 1332.45352827 1383.73494445 1335.69447901 1387 1339 C1390.24451876 1342.28467991 1393.47922358 1345.50734004 1397 1348.5 C1401.0895362 1351.97610577 1404.8096054 1355.78249656 1408.578125 1359.59765625 C1411.30308001 1362.34325486 1414.05023473 1364.99269952 1417 1367.5 C1421.0895362 1370.97610577 1424.8096054 1374.78249656 1428.578125 1378.59765625 C1431.30308001 1381.34325486 1434.05023473 1383.99269952 1437 1386.5 C1441.0895362 1389.97610577 1444.8096054 1393.78249656 1448.578125 1397.59765625 C1451.30308001 1400.34325486 1454.05023473 1402.99269952 1457 1405.5 C1461.08559334 1408.97275434 1464.80241343 1412.7750249 1468.56713867 1416.58666992 C1471.97722271 1420.02273142 1475.49589904 1423.2586778 1479.17578125 1426.40625 C1482.25875 1429.09972163 1485.35605675 1431.86857972 1488 1435 C1488 1435.66 1488 1436.32 1488 1437 C1317.72 1437 1147.44 1437 972 1437 C972 1436.34 972 1435.68 972 1435 C973.48738235 1433.64617851 975.04430551 1432.36860114 976.625 1431.125 C981.16077167 1427.49871468 985.60659709 1423.79731913 990 1420 C994.98871008 1415.69948092 1000.04223868 1411.49512389 1005.15625 1407.34375 C1008.47686486 1404.60697951 1011.74046782 1401.8089705 1015 1399 C1019.98940767 1394.70027287 1025.04221156 1390.49514591 1030.15625 1386.34375 C1033.47686486 1383.60697951 1036.74046782 1380.8089705 1040 1378 C1044.98940767 1373.70027287 1050.04221156 1369.49514591 1055.15625 1365.34375 C1058.47686486 1362.60697951 1061.74046782 1359.8089705 1065 1357 C1069.12468204 1353.44546839 1073.27207712 1349.93207857 1077.5 1346.5 C1082.90076172 1342.11287098 1088.174677 1337.58776588 1093.44921875 1333.05078125 C1101.70209741 1325.95271917 1110.01822756 1318.93726785 1118.46484375 1312.0703125 C1119.30144531 1311.38710937 1120.13804688 1310.70390625 1121 1310 C1122.02706043 1309.38495977 1123.05412086 1308.76991954 1124.11230433 1308.13624173 C1126.26192023 1306.31688717 1126.93036129 1305.31034741 1127.55350797 1302.53327187 C1127.76764485 1299.25867995 1127.78204229 1296.03131887 1127.73828697 1292.74981976 C1127.74867157 1290.85440833 1127.74867157 1290.85440833 1127.75926596 1288.92070577 C1127.77770815 1285.39975245 1127.75860964 1281.8798359 1127.73359716 1278.35895972 C1127.71301641 1274.53386841 1127.72721194 1270.70888376 1127.7370621 1266.88377172 C1127.74951633 1260.17549273 1127.73962237 1253.46753268 1127.71523285 1246.7592907 C1127.67906717 1236.78440304 1127.67721382 1226.80971707 1127.68248478 1216.8347758 C1127.69037421 1200.05658532 1127.670297 1183.27853645 1127.63438034 1166.50038719 C1127.59890012 1149.88359057 1127.57578911 1133.26685291 1127.56926346 1116.65001869 C1127.56885102 1115.61753404 1127.56843858 1114.58504939 1127.56801365 1113.52127732 C1127.5659837 1108.27798871 1127.56417538 1103.03470004 1127.56245239 1097.79141132 C1127.54984386 1060.63572167 1127.50940283 1023.48010911 1127.45263672 986.32446289 C1127.39754661 950.22420665 1127.35503687 914.12397149 1127.32958984 878.02368164 C1127.32880069 876.91126762 1127.32801153 875.79885359 1127.32719846 874.65273005 C1127.31928746 863.48159537 1127.31163256 852.31046051 1127.3041653 841.13932552 C1127.28894728 818.38164496 1127.27201977 795.62396578 1127.25405884 772.86628723 C1127.2532351 771.81988443 1127.25241136 770.77348164 1127.25156266 769.69536966 C1127.19634181 699.79688105 1127.10126865 629.89843519 1127 560 C1124.37081247 567.1283062 1121.74227369 574.25685135 1119.11450347 581.38568014 C1117.89355081 584.69792095 1116.67239671 588.01008716 1115.450737 591.32206726 C1108.81417975 609.31467963 1102.23063563 627.3240697 1095.78881836 645.38745117 C1093.42947747 652.00066716 1091.05987699 658.61020059 1088.6875 665.21875 C1088.44817245 665.8854924 1088.20884491 666.5522348 1087.96226501 667.23918152 C1082.47254315 682.52477522 1076.84555674 697.7591137 1071.20800781 712.99072266 C1064.19236093 731.95414854 1057.31597957 750.96421174 1050.5 770 C1042.84739688 791.3723253 1035.08786259 812.70082024 1027.20800781 833.99072266 C1020.19236093 852.95414854 1013.31597957 871.96421174 1006.5 891 C998.84739688 912.3723253 991.08786259 933.70082024 983.20800781 954.99072266 C976.19236093 973.95414854 969.31597957 992.96421174 962.5 1012 C954.84739688 1033.3723253 947.08786259 1054.70082024 939.20800781 1075.99072266 C932.19236093 1094.95414854 925.31597957 1113.96421174 918.5 1133 C910.84739688 1154.3723253 903.08786259 1175.70082024 895.20800781 1196.99072266 C888.19236093 1215.95414854 881.31597957 1234.96421174 874.5 1254 C866.84739688 1275.3723253 859.08786259 1296.70082024 851.20800781 1317.99072266 C844.19236093 1336.95414854 837.31597957 1355.96421174 830.5 1375 C822.85413619 1396.35350362 815.10505873 1417.66462978 807.22814941 1438.93432617 C801.95352032 1453.18216139 796.73961371 1467.44964193 791.609375 1481.75 C791.20906067 1482.86566093 791.20906067 1482.86566093 790.80065918 1484.00386047 C788.17524761 1491.32257862 785.55473889 1498.64302942 782.94297409 1505.96662903 C781.98573204 1508.64950991 781.0264337 1511.33165278 780.06678009 1514.01367188 C779.40369011 1515.86968036 778.74377448 1517.72682195 778.08392334 1519.58398438 C777.69045715 1520.68355469 777.29699097 1521.783125 776.89160156 1522.91601562 C776.37705414 1524.36022888 776.37705414 1524.36022888 775.85211182 1525.83361816 C775 1528 775 1528 774 1529 C771.77667526 1529.10281495 769.54991864 1529.13085067 767.32421875 1529.1328125 C766.59966492 1529.13413177 765.87511108 1529.13545105 765.12860107 1529.1368103 C762.64819516 1529.13877719 760.16789523 1529.13223837 757.6875 1529.125 C756.39949997 1529.12367065 756.39949997 1529.12367065 755.08547974 1529.12231445 C725.05559899 1529.08686689 695.02511594 1528.49438124 665 1528 C663.85543097 1524.21127865 662.71625345 1520.42098253 661.58203125 1516.62915039 C661.00545178 1514.70568707 660.42462069 1512.78349989 659.84375 1510.86132812 C659.30234375 1509.04858398 659.30234375 1509.04858398 658.75 1507.19921875 C658.41484375 1506.08377686 658.0796875 1504.96833496 657.734375 1503.8190918 C657 1501 657 1501 657 1498 C689.01 1497.67 721.02 1497.34 754 1497 C758.29 1484.79 762.58 1472.58 767 1460 C769.44417529 1453.16455773 771.88867619 1446.33015038 774.35690308 1439.50350952 C775.83917385 1435.40361636 777.31764872 1431.30235609 778.79655457 1427.20124817 C779.59913069 1424.97575407 780.40187645 1422.75032115 781.20478821 1420.52494812 C786.04811094 1407.09984887 790.87470744 1393.66874111 795.70087814 1380.23746872 C796.43839978 1378.18499599 797.17599255 1376.13254883 797.91360474 1374.08010864 C804.94680673 1354.50958171 811.96875683 1334.93504425 818.98312378 1315.35775757 C825.01317367 1298.52867918 831.06226193 1281.70653079 837.12115479 1264.88781738 C842.8243738 1249.05537102 848.51140611 1233.2171903 854.1875 1217.375 C861.19807563 1197.80880687 868.21972071 1178.24661983 875.25 1158.6875 C875.73452787 1157.33944712 876.21905546 1155.99139415 876.70358276 1154.64334106 C880.38188403 1144.40968648 884.06070237 1134.17621779 887.73956299 1123.94276428 C891.16783303 1114.40635838 894.59595262 1104.86989841 898.0236702 1095.33329391 C898.50780304 1093.98634008 898.99194153 1092.63938828 899.47608566 1091.29243851 C906.65607174 1071.31669357 913.82478564 1051.33693468 920.98449707 1031.35391235 C927.01409015 1014.52611607 933.06272323 997.7052503 939.12115479 980.88781738 C944.8243738 965.05537102 950.51140611 949.2171903 956.1875 933.375 C963.19807563 913.80880687 970.21972071 894.24661983 977.25 874.6875 C977.73452787 873.33944712 978.21905546 871.99139415 978.70358276 870.64334106 C982.38188403 860.40968648 986.06070237 850.17621779 989.73956299 839.94276428 C993.4099817 829.73277433 997.08019733 819.5227114 1000.75 809.3125 C1000.9903447 808.64381771 1001.23068939 807.97513542 1001.47831726 807.28619003 C1008.16087718 788.69389573 1014.83545822 770.09876232 1021.5 751.5 C1028.40665752 732.22556435 1035.32460142 712.9552078 1042.25 693.6875 C1042.49002243 693.01970394 1042.73004486 692.35190788 1042.9773407 691.66387558 C1046.89767006 680.75669059 1050.81858417 669.84971582 1054.73956299 658.94276428 C1058.16783303 649.40635838 1061.59595262 639.86989841 1065.0236702 630.33329391 C1065.50780304 628.98634008 1065.99194153 627.63938828 1066.47608566 626.29243851 C1073.26429945 607.40665991 1080.04314726 588.51754906 1086.8125 569.625 C1092.98761797 552.3913684 1099.17397878 535.161829 1105.375 517.9375 C1105.89013657 516.50642914 1105.89013657 516.50642914 1106.41567993 515.04644775 C1107.07025467 513.22820439 1107.72579241 511.41030732 1108.38246918 509.59282207 C1109.06812357 507.68362805 1109.74706893 505.77200111 1110.41697502 503.85722446 C1112.27026045 498.60390916 1114.21707685 493.42012224 1116.39417136 488.29373837 C1126.03361418 465.50019616 1128.85076475 445.64531801 1128.31812119 421.03151798 C1128.23481214 416.50362044 1128.22906251 411.97550618 1128.21379089 407.44696045 C1128.17396467 398.93661971 1128.06811249 390.42854507 1127.93624753 381.91918635 C1127.78908648 372.20422946 1127.71900789 362.48914302 1127.65420687 352.77334261 C1127.51964427 332.84764771 1127.29216904 312.92396856 1127 293 C1126.61988266 294.05471874 1126.61988266 294.05471874 1126.23208618 295.13074493 C1123.79271058 301.89910462 1121.35294626 308.66732401 1118.9127903 315.43540239 C1117.6595968 318.9113308 1116.40653185 322.38730541 1115.15380859 325.86340332 C1108.46618858 344.42004499 1101.75091045 362.96627126 1095 381.5 C1087.96506854 400.82081299 1080.96835903 420.15509424 1074 439.5 C1066.62709065 459.96798046 1059.21930811 480.42292231 1051.77453613 500.86489868 C1045.0641658 519.29304203 1038.39739979 537.73657932 1031.75 556.1875 C1025.50205517 573.52918614 1019.24474243 590.86727087 1012.9375 608.1875 C1006.87829142 624.82700247 1000.83957077 641.4738282 994.8125 658.125 C994.37075439 659.34533936 993.92900879 660.56567871 993.47387695 661.82299805 C989.42743002 673.0016663 985.3819472 684.18068337 981.33691406 695.35986328 C978.70415489 702.63587933 976.07098738 709.91174749 973.4375 717.1875 C973.00288452 718.38831207 972.56826904 719.58912415 972.1204834 720.82632446 C965.37569652 739.45983773 958.60611494 758.08423511 951.82736206 776.70541382 C944.94939142 795.60283275 938.11779354 814.51675144 931.3023262 833.43677139 C924.16174113 853.25906931 916.98448423 873.06770556 909.77453613 892.86489868 C903.0641658 911.29304203 896.39739979 929.73657932 889.75 948.1875 C883.18887844 966.39843397 876.61283861 984.60369215 869.98901367 1002.79193115 C864.22293192 1018.6249942 858.48310961 1034.46746954 852.75 1050.3125 C846.28072546 1068.19199602 839.79734663 1086.06624158 833.29284668 1103.93295288 C825.59145965 1125.08731595 817.93200438 1146.2564684 810.3023262 1167.43677139 C803.16174113 1187.25906931 795.98448423 1207.06770556 788.77453613 1226.86489868 C782.0641658 1245.29304203 775.39739979 1263.73657932 768.75 1282.1875 C762.1928741 1300.38734367 755.62100295 1318.58157593 749.00109863 1336.75869751 C742.09388064 1355.72477067 735.22289925 1374.70390853 728.35522461 1393.68432617 C727.92712997 1394.86730789 727.49903534 1396.05028961 727.05796814 1397.26911926 C726.27171829 1399.4418999 725.4856164 1401.6147341 724.69972229 1403.78764343 C720.81266738 1414.52980563 716.9040246 1425.26393235 713 1436 C686.6 1436 660.2 1436 633 1436 C627.493125 1419.6959375 627.493125 1419.6959375 621.875 1403.0625 C611.88333581 1373.48655164 611.88333581 1373.48655164 601.8125 1343.9375 C596.04631273 1327.09585004 590.33196297 1310.23678774 584.625 1293.375 C578.38988799 1274.95324651 572.14777482 1256.53397408 565.875 1238.125 C560.09109608 1221.15025529 554.32229463 1204.17044089 548.5625 1187.1875 C542.50628832 1169.33119175 536.4456566 1151.47640296 530.375 1133.625 C530.02734589 1132.60266266 529.67969177 1131.58032532 529.32150269 1130.52700806 C526.88126737 1123.35124837 524.44067933 1116.17560867 522 1109 C519.20808326 1100.7917517 516.41633418 1092.58344643 513.625 1084.375 C513.10362457 1082.84181122 513.10362457 1082.84181122 512.57171631 1081.27764893 C506.47039854 1063.33460772 500.38014249 1045.38782342 494.2925415 1027.44012451 C488.70185101 1010.95775835 483.10460378 994.47764017 477.5 978 C471.49190104 960.33607645 465.49307887 942.66902517 459.5 925 C453.46448393 907.20623931 447.42434098 889.4140657 441.375 871.625 C441.02725525 870.60239075 440.6795105 869.57978149 440.32122803 868.52618408 C437.88108464 861.35069893 435.4405861 854.17533459 433 847 C430.20808326 838.7917517 427.41633418 830.58344643 424.625 822.375 C424.27741638 821.35287415 423.92983276 820.33074829 423.57171631 819.27764893 C417.47039854 801.33460772 411.38014249 783.38782342 405.2925415 765.44012451 C399.70185101 748.95775835 394.10460378 732.47764017 388.5 716 C382.49190103 698.33607641 376.49312182 680.66901063 370.5 663 C364.42200078 645.08151848 358.34023612 627.16432637 352.25 609.25 C351.93957764 608.33669922 351.62915527 607.42339844 351.30932617 606.48242188 C346.2876694 591.70889299 341.25304841 576.9397899 336.21777344 562.17089844 C335.51569337 560.11156306 334.81361612 558.05222672 334.11154175 555.9928894 C332.40772692 550.99524855 330.70387743 545.99761951 329 541 C328.96567485 600.81191739 328.93388234 660.6238359 328.91531372 720.4357605 C328.91503761 721.32287819 328.91476149 722.20999589 328.91447701 723.12399594 C328.90848934 742.4096287 328.90294924 761.69526156 328.89786934 780.98089457 C328.89537496 790.44038807 328.89278181 799.89988154 328.89013672 809.359375 C328.88974444 810.77127487 328.88974444 810.77127487 328.88934424 812.21169797 C328.8808418 842.6477357 328.86583444 873.08376595 328.84740556 903.51979915 C328.82848112 934.83159291 328.81621544 966.14338254 328.81217002 997.45518192 C328.81159382 1001.89127277 328.81094255 1006.32736361 328.81024551 1010.76345444 C328.81011067 1011.63642662 328.80997582 1012.5093988 328.80983689 1013.40882468 C328.80748568 1027.38601625 328.79824292 1041.36319493 328.78633593 1055.34038127 C328.77447681 1069.43773195 328.77008498 1083.53507002 328.77299725 1097.6324255 C328.77437204 1105.25214952 328.77263745 1112.87183912 328.76158905 1120.49155617 C328.70970119 1157.70481027 328.65940324 1194.90852409 332.875 1231.9375 C332.9602594 1232.71254883 333.0455188 1233.48759766 333.13336182 1234.28613281 C338.57966182 1283.69462595 354.03910368 1324.00846336 385 1363 C385.73863281 1363.93328125 386.47726562 1364.8665625 387.23828125 1365.828125 C392.07670376 1371.84392564 397.18125378 1377.55607188 402.4296875 1383.2109375 C404.58077429 1385.5450955 406.67925658 1387.90746617 408.75 1390.3125 C410.84020657 1392.73377948 412.99564741 1394.9835335 415.3125 1397.1875 C419.96147238 1401.76399396 423.74045685 1407.0408426 427.65869141 1412.23535156 C429.88401032 1415.16301904 432.16043642 1418.05001024 434.4375 1420.9375 C435.36458601 1422.11458123 436.29166933 1423.29166457 437.21875 1424.46875 C437.67894531 1425.05269531 438.13914062 1425.63664062 438.61328125 1426.23828125 C439.98417682 1427.97989788 441.35199991 1429.72387885 442.71875 1431.46875 C447.44811287 1437.50440695 452.20332281 1443.51766201 457 1449.5 C462.25634643 1456.05563 467.4594206 1462.65138496 472.64111328 1469.26611328 C474.92453303 1472.17966827 477.21250803 1475.08964193 479.5 1478 C480.41668823 1479.16664973 481.3333549 1480.33331639 482.25 1481.5 C482.70375 1482.0775 483.1575 1482.655 483.625 1483.25 C488.66666667 1489.66666667 493.70833333 1496.08333333 498.75 1502.5 C499.20463623 1503.07854736 499.65927246 1503.65709473 500.12768555 1504.25317383 C501.03571731 1505.40901216 501.94343704 1506.56509571 502.85083008 1507.72143555 C505.27198439 1510.80595564 507.69987761 1513.88488422 510.13671875 1516.95703125 C510.6471875 1517.60220703 511.15765625 1518.24738281 511.68359375 1518.91210938 C512.66991201 1520.158457 513.65812994 1521.40330416 514.6484375 1522.64648438 C518 1526.8875378 518 1526.8875378 518 1528 C462.22097977 1528.32528965 406.44186643 1528.62777608 350.66215515 1528.80451965 C349.83643396 1528.80714274 349.01071276 1528.80976582 348.15996971 1528.81246839 C330.21427708 1528.86933532 312.26857438 1528.92196853 294.32285662 1528.97024126 C285.52212028 1528.99394039 276.72138667 1529.01857495 267.9206543 1529.04370117 C267.0448815 1529.04618559 266.16910871 1529.04867002 265.26679735 1529.05122972 C236.88671733 1529.13217766 208.50735667 1529.27487784 180.12771235 1529.44964719 C150.9607908 1529.62893832 121.79426724 1529.74583956 92.62680394 1529.78438481 C88.505949 1529.78985965 84.38509542 1529.79604675 80.26424217 1529.80266762 C79.45320934 1529.80394865 78.64217651 1529.80522969 77.80656692 1529.80654955 C64.75741864 1529.82899183 51.70950195 1529.91708287 38.66085569 1530.02980865 C25.53826779 1530.14176916 12.41689911 1530.18436781 -0.70614954 1530.15652617 C-8.50141749 1530.14208638 -16.29221934 1530.18046006 -24.08667936 1530.29515332 C-29.91219847 1530.3750069 -35.73464717 1530.35516555 -41.56051574 1530.297079 C-43.9134776 1530.28905766 -46.26681745 1530.31311591 -48.6190364 1530.37278046 C-65.66620218 1530.77998012 -65.66620218 1530.77998012 -71.15412749 1526.20372082 C-75.76486328 1521.01555607 -78.80357017 1515.12215432 -82 1509 C-84.31 1505.37 -86.62 1501.74 -89 1498 C92.17 1498 273.34 1498 460 1498 C442.18036883 1463.97458288 442.18036883 1463.97458288 410.83778858 1436.01561737 C408.02689529 1435.78821476 408.02689529 1435.78821476 405.49354821 1435.90852594 C404.55480524 1435.92878409 403.61606226 1435.94904223 402.64887253 1435.96991426 C401.18683766 1436.00359881 401.18683766 1436.00359881 399.69526672 1436.03796387 C397.62332515 1436.02684644 395.55141144 1436.00870151 393.47958535 1435.98416281 C387.80197775 1435.93715482 382.12900651 1435.98951409 376.4517833 1436.05840707 C370.32433745 1436.11525459 364.19734196 1436.07954197 358.06977844 1436.05516052 C347.45888099 1436.02556657 336.84959822 1436.05385088 326.23900795 1436.12312317 C315.11430473 1436.19550811 303.99029515 1436.23468377 292.86534691 1436.2297821 C291.82672103 1436.22935234 291.82672103 1436.22935234 290.76711281 1436.22891388 C287.25048852 1436.22728673 283.73386487 1436.22506892 280.21724107 1436.22262377 C255.326902 1436.20637879 230.43723307 1436.26417811 205.54711914 1436.36572266 C181.37098137 1436.46418444 157.19513505 1436.52898206 133.01879883 1436.54833984 C132.27321766 1436.54895021 131.52763649 1436.54956057 130.75946196 1436.55018943 C123.27183822 1436.556282 115.78421412 1436.56169163 108.29658952 1436.56660098 C93.0442545 1436.57661688 77.79192496 1436.59119018 62.53959656 1436.60852051 C61.48774515 1436.60970723 61.48774515 1436.60970723 60.41464422 1436.61091793 C13.6095682 1436.66424691 -33.19524072 1436.82413678 -80 1437 C-80 1436.34 -80 1435.68 -80 1435 C-78.82308594 1434.42894531 -77.64617187 1433.85789062 -76.43359375 1433.26953125 C-62.98924022 1426.68279308 -49.95074272 1419.50570159 -37 1412 C-36.19723633 1411.53964355 -35.39447266 1411.07928711 -34.56738281 1410.60498047 C-11.53298289 1397.3638529 11.15862284 1382.49492415 32 1366 C33.33804688 1364.95779297 33.33804688 1364.95779297 34.703125 1363.89453125 C53.95380263 1348.73008236 72.84749738 1332.33067961 88 1313 C88.79019531 1312.02675781 89.58039063 1311.05351562 90.39453125 1310.05078125 C137.75360064 1250.60955557 144.61340305 1167.15819287 146.54296589 1094.02406693 C146.56418292 1093.23440058 146.58539995 1092.44473423 146.60725992 1091.6311386 C147.08815605 1073.3759249 147.1665628 1055.12441129 147.18427981 1036.86380444 C147.18998097 1032.06529892 147.20115997 1027.26680505 147.21151572 1022.46830773 C147.23105734 1013.00919394 147.24550011 1003.55007894 147.25817415 994.09095372 C147.26885315 986.2254007 147.28177052 978.35985385 147.29604149 970.49430656 C147.29811172 969.35145956 147.30018195 968.20861256 147.30231491 967.03113382 C147.30654084 964.69940071 147.31076693 962.36766759 147.31499317 960.03593447 C147.46474924 876.64540463 147.53844715 793.25470022 147.59730609 709.86405909 C147.60567509 698.01846528 147.61435984 686.1728717 147.62319286 674.32727822 C147.62475626 672.2274933 147.62630873 670.12770836 147.62786102 668.02792342 C147.6607811 623.69051197 147.72728354 579.35323488 147.81341685 535.01589708 C147.87638252 502.59687637 147.93438893 470.17788582 147.95705128 437.75880814 C147.95751951 437.0923754 147.95798774 436.42594267 147.95847016 435.73931501 C147.96819121 421.76840329 147.97560243 407.79749112 147.98024191 393.82657671 C147.98242302 387.28549976 147.98496183 380.74442299 147.98771095 374.20334625 C147.98850255 372.27251868 147.98850255 372.27251868 147.98931013 370.3026845 C147.99873534 349.5776307 148.04222769 328.85278164 148.09828154 308.12780736 C148.15377254 287.32874421 148.17286328 266.5299007 148.15452697 245.73076931 C148.14472768 233.37016066 148.16292708 221.01032426 148.22083864 208.64984346 C148.2567521 200.40046809 148.25654222 192.15161073 148.2266423 183.90221253 C148.21063229 179.19813484 148.21060056 174.49552762 148.2545106 169.79159507 C148.29414256 165.51272303 148.28778283 161.23648489 148.24464108 156.95766931 C148.23720222 155.41921943 148.24655353 153.88057392 148.27470445 152.34236363 C148.48624355 143.73657709 148.48624355 143.73657709 144.81888822 136.16812804 C142.31494131 133.90097849 139.75093421 131.95361486 137 130 C135.76478736 128.81915766 134.54997861 127.61579175 133.375 126.375 C131.0468 124.00328224 128.64701477 121.78956386 126.125 119.625 C123.1153247 117.03365795 120.28911384 114.32745217 117.5 111.5 C114.7514401 108.71378859 111.97140209 106.04691608 109 103.5 C105.20641267 100.24835372 101.72607353 96.74286906 98.21875 93.1875 C96.20569368 91.20279658 94.14553597 89.33903084 92 87.5 C88.20641267 84.24835372 84.72607353 80.74286906 81.21875 77.1875 C79.20569368 75.20279658 77.14553597 73.33903084 75 71.5 C71.20781241 68.24955349 67.72864469 64.74550431 64.22265625 61.19140625 C61.5729856 58.57898932 58.78827197 56.16697379 55.96484375 53.74609375 C53.18300852 51.27396582 50.60624049 48.61569453 47.99609375 45.96484375 C46.07892823 44.07769256 44.10424678 42.31314625 42.0625 40.5625 C39.07198284 37.99334729 36.26883316 35.30682744 33.5 32.5 C30.7514401 29.71378859 27.97140209 27.04691608 25 24.5 C21.2126321 21.25368465 17.73667433 17.75589725 14.23828125 14.203125 C11.54910963 11.55619167 8.7263833 9.11246916 5.82421875 6.703125 C4 5 4 5 0 0 Z M237 270 C236.96567666 349.29606417 236.93388388 428.59212924 236.91531372 507.88819885 C236.91503761 509.06420385 236.91476149 510.24020886 236.91447701 511.45185037 C236.90848941 537.0174747 236.9029493 562.58309911 236.89786934 588.14872363 C236.89537495 600.68842319 236.8927818 613.22812273 236.89013672 625.76782227 C236.8898752 627.01558809 236.88961368 628.26335392 236.88934424 629.54893083 C236.88084102 669.89945274 236.86583305 710.249969 236.84740556 750.6004875 C236.82848336 792.11024253 236.81621595 833.61999444 236.81217002 875.12975371 C236.81159382 881.0099396 236.81094255 886.89012548 236.81024551 892.77031136 C236.81011067 893.92747088 236.80997582 895.08463041 236.80983689 896.27685537 C236.80748521 914.80805537 236.79824113 933.33924565 236.78633593 951.8704417 C236.77448003 970.55859221 236.77008419 989.24673321 236.77299725 1007.93488734 C236.77437252 1018.03692233 236.77263075 1028.13893135 236.76158905 1038.24096107 C235.49248849 1169.63114873 235.49248849 1169.63114873 283 1341 C283.59071289 1341.80848389 283.59071289 1341.80848389 284.19335938 1342.63330078 C298.9431193 1362.70555159 317.62732159 1378.32431197 339 1391 C339.70366699 1391.41958984 340.40733398 1391.83917969 341.13232422 1392.27148438 C359.7153024 1403.22380965 379.48360543 1411.32255011 399.875 1418.25 C401.02814697 1418.64525879 402.18129395 1419.04051758 403.36938477 1419.44775391 C404.44115967 1419.80015137 405.51293457 1420.15254883 406.6171875 1420.515625 C407.56190918 1420.82790039 408.50663086 1421.14017578 409.47998047 1421.46191406 C412.09579748 1422.02045511 413.50881213 1421.88767305 416 1421 C409.98642818 1409.57250027 402.52545463 1402.99692535 392.11621094 1395.54833984 C376.76003581 1384.31289192 362.42058324 1370.1747542 351 1355 C350.52530273 1354.37996094 350.05060547 1353.75992188 349.56152344 1353.12109375 C312.22737308 1304.14760965 298.09334541 1245.44576728 298.60622461 1184.64990236 C298.63436338 1180.74062537 298.6377519 1176.83130228 298.64449829 1172.92194045 C298.65940378 1166.10424283 298.68886987 1159.28673837 298.72842598 1152.46914101 C298.78704994 1142.32875734 298.82131567 1132.18838946 298.85004695 1122.04788194 C298.89571882 1106.00918663 298.95417968 1089.97057313 299.02081451 1073.93195245 C299.12620311 1048.43019437 299.18348985 1022.92848349 299.22446519 997.42654841 C299.23326804 991.9793688 299.24249015 986.5321899 299.25165278 981.08501089 C299.26273012 974.47394398 299.27375431 967.862877 299.28463798 961.25180977 C299.32570404 936.36968471 299.37194651 911.48757214 299.42456055 886.60546875 C299.42813451 884.90180184 299.42813451 884.90180184 299.43178068 883.16371742 C299.50932656 846.40212524 299.64501782 809.6409935 299.80682798 772.87968547 C299.97330899 734.96692541 300.06864849 697.05456444 300.08111066 659.14142871 C300.08293574 653.7652003 300.08561629 648.38897265 300.08885002 643.0127449 C300.08946876 641.9549902 300.09008749 640.89723549 300.09072497 639.80742761 C300.10274992 622.9283622 300.18873578 606.05048245 300.30467055 589.17184472 C300.4201945 572.14154434 300.45748744 555.11242519 300.41930635 538.08176588 C300.40081416 528.89019576 300.41423674 519.70175351 300.52685738 510.5107708 C301.04496953 466.47409826 296.65005437 430.64473726 279.70604789 389.72262311 C275.49335481 379.44744527 272.01758786 368.9074 268.47777779 358.38614075 C266.59808637 352.82750658 264.67029654 347.28553648 262.74609375 341.7421875 C259.82358985 333.29191206 256.9120383 324.83795329 254.01049805 316.38046265 C252.2474446 311.24154175 250.48063658 306.10391287 248.71392822 300.96624756 C247.86858205 298.50507066 247.02477025 296.04336617 246.18255615 293.58111572 C245.02009076 290.18294732 243.8524186 286.78661028 242.68359375 283.390625 C242.16624413 281.87143967 242.16624413 281.87143967 241.63844299 280.32156372 C241.31875046 279.39592621 240.99905792 278.4702887 240.66967773 277.51660156 C240.25600197 276.30982758 240.25600197 276.30982758 239.83396912 275.07867432 C238.98330713 272.75288118 238.98330713 272.75288118 237 270 Z " fill="#5B6DF2" transform="translate(342,781)"/>
<path d="M0 0 C174.24 0 348.48 0 528 0 C521.25025696 7.87470022 521.25025696 7.87470022 518.0606842 11.05284119 C517.33893509 11.77451981 516.61718597 12.49619843 515.87356567 13.23974609 C515.10197113 14.00617432 514.33037659 14.77260254 513.53540039 15.56225586 C512.70696121 16.38923477 511.87852203 17.21621368 511.02497864 18.06825256 C509.23534279 19.85409865 507.44455312 21.63878906 505.65272713 23.42243767 C502.81251629 26.24982506 499.97542116 29.08030366 497.13926697 31.91175842 C490.60593052 38.43310073 484.06757798 44.9494062 477.52915192 51.46564484 C471.53449436 57.44006036 465.54093387 63.41556587 459.5514316 69.39515024 C456.28752515 72.65331675 453.01973128 75.90755319 449.75123596 79.16111755 C448.03200639 80.87671231 446.31291835 82.5924489 444.59399414 84.30834961 C443.43963867 85.4549556 443.43963867 85.4549556 442.26196289 86.62472534 C441.53739395 87.34922379 440.81282501 88.07372223 440.06629944 88.82017517 C439.13637727 89.74676642 439.13637727 89.74676642 438.1876688 90.69207668 C436.08758678 92.84482167 436.08758678 92.84482167 434.66415978 94.66181859 C430.49319808 99.76384643 425.84945555 103.56169702 420.58056939 107.49133306 C399.96432282 122.91969462 377.98742786 141.57118313 373.65997669 168.1638347 C370.858741 188.12233579 371.44285573 208.50463231 371.97374217 228.59726322 C372.24228855 239.18518011 372.20305756 249.76729494 372.15863022 260.35773916 C372.08491799 279.89273032 372.24565145 299.41889342 372.54663658 318.95142555 C372.8435211 338.26593807 373.03295745 357.57674046 373.08338356 376.89352989 C373.08659903 378.10127121 373.0898145 379.30901252 373.09312742 380.55335205 C373.10893069 386.68903444 373.12288125 392.82471957 373.13613341 398.96040794 C373.23314694 442.27825267 373.56736139 485.59128756 374.04272461 528.90649414 C374.50303543 570.89554985 374.84995864 612.88312041 375.04760742 654.87426758 C375.05374913 656.17012533 375.05989084 657.46598308 375.06621866 658.80110925 C375.12168273 670.52435956 375.17576512 682.24761592 375.22823338 693.97088002 C375.59028886 774.79237165 376.07975519 855.61268593 376.87214028 936.43118199 C376.94328735 943.71508868 377.01018375 950.99902591 377.0752182 958.2829895 C377.15321973 966.99346353 377.23804208 975.70383955 377.33180388 984.41415875 C377.37888726 988.79266715 377.42355023 993.17115545 377.46061584 997.54976115 C377.38658807 1029.73489539 377.38658807 1029.73489539 382.25 1061.4375 C382.46543457 1062.34234131 382.68086914 1063.24718262 382.90283203 1064.17944336 C388.44927488 1086.50992182 400.61698222 1111.53182879 420.85107422 1124.15478516 C421.49705566 1124.53296387 422.14303711 1124.91114258 422.80859375 1125.30078125 C423.4521582 1125.68137695 424.09572266 1126.06197266 424.75878906 1126.45410156 C426.01428578 1127.17561487 427.28842113 1127.86590474 428.58105469 1128.51855469 C430.32421875 1129.50390625 430.32421875 1129.50390625 433 1132 C433.73572092 1135.06805282 433.38526325 1137.89236626 433 1141 C432.90001709 1141.90548584 432.80003418 1142.81097168 432.69702148 1143.74389648 C428.43824248 1178.04736795 419.37132593 1211.96825158 404 1243 C403.57025879 1243.8863916 403.14051758 1244.7727832 402.69775391 1245.68603516 C381.92329909 1288.31191867 350.17151566 1326.59412132 313 1356 C311.89698705 1356.90448408 310.79551357 1357.81084769 309.6953125 1358.71875 C239.89957544 1415.99391425 151.70847407 1447.53942225 -108.55145264 1461.24609375 C-195.24396605 1452.53297427 -281.87671655 1427.45168186 -404.8671875 1324.75390625 C-406.95171773 1322.19831669 -408.97621712 1319.60374471 -411 1317 C-412.57988537 1315.14289454 -414.1634403 1313.28890671 -415.75 1311.4375 C-452.28238159 1267.55340075 -474.23119355 1215.06887628 -493.36743164 1161.89892578 C-496.94879724 1151.98872769 -500.64963043 1142.15536559 -504.765625 1132.453125 C-505.29991623 1131.18288986 -505.29991623 1131.18288986 -505.84500122 1129.88699341 C-512.93019002 1113.49633518 -523.56042984 1101.6009386 -540.1418457 1094.75146484 C-550.74862866 1090.60151214 -561.84184646 1088.22791443 -572.92382812 1085.71337891 C-577.96626065 1084.54401479 -582.98321622 1083.27428987 -588 1082 C-588 1081.34 -588 1080.68 -588 1080 C-586.13639266 1078.54043526 -584.26787195 1077.20309615 -582.3125 1075.875 C-576.01784774 1071.49396804 -569.89584601 1066.9194335 -563.8125 1062.25 C-553.19964362 1054.1210849 -542.45162168 1046.18842591 -531.66601562 1038.29101562 C-522.54636218 1031.60936477 -513.47960099 1024.86908148 -504.5 1018 C-493.98837925 1009.95897686 -483.34369567 1002.10940059 -472.66601562 994.29101562 C-463.54636218 987.60936477 -454.47960099 980.86908148 -445.5 974 C-434.98837925 965.95897686 -424.34369567 958.10940059 -413.66601562 950.29101562 C-404.54636218 943.60936477 -395.47960099 936.86908148 -386.5 930 C-375.98837925 921.95897686 -365.34369567 914.10940059 -354.66601562 906.29101562 C-345.54636218 899.60936477 -336.47960099 892.86908148 -327.5 886 C-316.98837925 877.95897686 -306.34369567 870.10940059 -295.66601562 862.29101562 C-293.31784445 860.5705928 -290.97107539 858.84827953 -288.625 857.125 C-287.85639648 856.56119629 -287.08779297 855.99739258 -286.29589844 855.41650391 C-281.93101139 852.20203119 -277.60634824 848.94168677 -273.3125 845.6328125 C-272.3642334 844.90304199 -271.4159668 844.17327148 -270.43896484 843.42138672 C-268.60187845 842.00380505 -266.76867815 840.58116888 -264.93994141 839.15283203 C-263.68963135 838.18772705 -263.68963135 838.18772705 -262.4140625 837.203125 C-261.6813916 836.63239258 -260.9487207 836.06166016 -260.19384766 835.47363281 C-257.87774077 833.91787706 -255.61925937 832.94189832 -253 832 C-253.61054809 841.7998564 -254.99933511 851.4528854 -256.41094971 861.16061401 C-269.22931002 949.80486542 -276.44587205 1042.30614019 -201.45703125 1307.09082031 C-197.52046549 1312.24898792 -193.31563292 1317.15758342 -189 1322 C-188.29762207 1322.79494873 -188.29762207 1322.79494873 -187.58105469 1323.60595703 C-166.99095364 1346.84175273 -141.28373841 1363.7620944 -112 1374 C-111.3002002 1374.24830566 -110.60040039 1374.49661133 -109.87939453 1374.75244141 C-104.98139208 1376.45102769 -100.04563345 1377.81421312 -95 1379 C-94.17693359 1379.19609863 -93.35386719 1379.39219727 -92.50585938 1379.59423828 C-65.87811554 1385.60267568 -33.64138712 1386.23322483 -7 1380 C-5.64986816 1379.68603271 -5.64986816 1379.68603271 -4.27246094 1379.36572266 C25.82518195 1372.14044753 52.35623075 1358.90865635 74.62792969 1337.32080078 C75.77778149 1336.21391497 76.95252078 1335.13296185 78.1328125 1334.05859375 C136.27195641 1279.68998009 147.83141955 1181.31708352 151 1106 C151.15783336 1100.25933991 151.14287342 1094.51731252 151.1386652 1088.7749548 C151.14111981 1087.10258095 151.14400577 1085.43020769 151.14727798 1083.75783524 C151.15497668 1079.19368121 151.15661649 1074.62954273 151.1572054 1070.065383 C151.15894593 1065.08820958 151.1664376 1060.11104413 151.17318195 1055.13387543 C151.18420426 1046.42149539 151.19159711 1037.70911821 151.19658089 1028.99673271 C151.20400813 1016.04184004 151.21709612 1003.08695735 151.23132664 990.13207059 C151.25510802 968.33729644 151.2743316 946.54252049 151.29092598 924.74773979 C151.30736701 903.17273146 151.32585171 881.59772644 151.34705925 860.02272224 C151.34771764 859.35197737 151.34837604 858.68123249 151.34905439 857.99016201 C151.35506914 851.86368347 151.36110898 845.73720494 151.36717889 839.61072645 C151.38226577 824.38293331 151.39703831 809.15513988 151.41159725 793.92734623 C151.41226039 793.23400783 151.41292353 792.54066944 151.41360676 791.82632079 C151.44581465 758.12290415 151.47440013 724.41948457 151.50268555 690.71606445 C151.51249972 679.02441403 151.52232993 667.33276363 151.53222656 655.64111328 C151.53284036 654.91596769 151.53345416 654.1908221 151.53408656 653.4437024 C151.56265784 619.71534809 151.59380724 585.9869963 151.62561907 552.25864491 C151.62768501 550.0682003 151.62974983 547.8777557 151.63181442 545.68731109 C151.64549872 531.17077007 151.65922738 516.65422908 151.67298577 502.13768812 C151.70035969 473.2549036 151.72747291 444.37211884 151.75440695 415.48933391 C151.75568954 414.11394968 151.75697231 412.73856545 151.75825526 411.36318122 C151.84100355 322.65092026 151.91757628 233.93865383 152 137 C151.37383789 136.70053467 150.74767578 136.40106934 150.10253906 136.0925293 C147.83654068 134.91506265 146.49562859 133.66405265 144.75 131.8125 C141.72703655 128.70006194 138.57668699 125.84057523 135.29296875 123.0078125 C132.53094118 120.58927388 129.82602288 118.11108624 127.125 115.625 C121.78385667 110.71185169 116.40292966 105.84520789 111 101 C105.12399299 95.73054855 99.27854557 90.42994352 93.46582031 85.09082031 C88.67425149 80.69316338 83.84189136 76.34208322 79 72 C73.59706695 67.15478907 68.21636096 62.28791402 62.875 57.375 C59.63782784 54.39781719 56.38862271 51.44047144 53.0625 48.5625 C48.93244815 44.98197688 44.9339593 41.26420238 40.92480469 37.54980469 C35.99354346 32.98403358 31.00702032 28.48255338 26 24 C20.51976182 19.08637773 15.05693421 14.15445666 9.625 9.1875 C8.87500732 8.50324951 8.87500732 8.50324951 8.10986328 7.80517578 C5.33433994 5.26211775 2.66459493 2.66459493 0 0 Z " fill="#5B6DF2" transform="translate(2511,781)"/>
<path d="M0 0 C3.40968812 1.13656271 3.84553245 1.81101223 5.8125 4.67578125 C6.33070313 5.42150391 6.84890625 6.16722656 7.3828125 6.93554688 C8.18332031 8.11213867 8.18332031 8.11213867 9 9.3125 C10.06212061 10.85052248 11.12460907 12.38829101 12.1875 13.92578125 C12.65542969 14.61067627 13.12335937 15.29557129 13.60546875 16.0012207 C14.98692447 18.05578816 14.98692447 18.05578816 16.73828125 20.00463867 C18 22 18 22 17.93798828 23.98339844 C16.70489902 26.63444406 15.09080856 28.22908796 12.9921875 30.265625 C12.16976562 31.07386719 11.34734375 31.88210938 10.5 32.71484375 C9.63375 33.55144531 8.7675 34.38804687 7.875 35.25 C6.1824599 36.89854441 4.49232132 38.54955832 2.8046875 40.203125 C2.05171387 40.93176758 1.29874023 41.66041016 0.52294922 42.41113281 C-1.48559052 44.47215037 -3.36502162 46.55663411 -5.23974609 48.73535156 C-9.27296573 53.38387931 -13.59595366 57.70409825 -17.96875 62.03125 C-18.8078894 62.86660278 -19.64702881 63.70195557 -20.51159668 64.56262207 C-24.0685452 68.10336129 -27.6314612 71.63807324 -31.19384766 75.17333984 C-33.80840164 77.7697206 -36.41988184 80.36916566 -39.03125 82.96875 C-40.22373352 84.14878601 -40.22373352 84.14878601 -41.44030762 85.35266113 C-42.19799438 86.10704468 -42.95568115 86.86142822 -43.73632812 87.63867188 C-44.72058777 88.61507629 -44.72058777 88.61507629 -45.72473145 89.61120605 C-47.0138598 90.96465596 -48.28082566 92.34273932 -49.46545172 93.78854001 C-52.96923146 98.02850753 -56.39223011 101.18812093 -61.02133207 104.13931851 C-74.41094165 112.77579128 -87.92166713 124.80312917 -91.63636246 140.88105072 C-95.92210355 162.8236149 -94.67462939 186.0702634 -94.32723167 208.30158316 C-94.17221429 218.70084922 -94.22551188 229.09673838 -94.28302978 239.49663145 C-94.38328015 258.69704613 -94.32003494 277.89361241 -94.15903091 297.09347916 C-93.99958115 316.12243052 -93.90738564 335.14967055 -93.90478134 354.17931747 C-93.90455233 355.36805479 -93.90432331 356.55679211 -93.90408735 357.78155177 C-93.9033487 362.60856163 -93.90306915 367.43557121 -93.90340479 372.26258113 C-93.90622671 417.486908 -93.72165917 462.70864859 -93.44029597 507.93201235 C-93.1920571 547.96292607 -93.06469134 587.99224498 -93.05419922 628.02392578 C-93.05384175 629.29477567 -93.05348429 630.56562556 -93.05311599 631.87498605 C-93.05239546 634.43947299 -93.05168533 637.00395993 -93.05098563 639.56844688 C-93.04923734 645.95821432 -93.04738291 652.34798172 -93.0453968 658.7377491 C-93.04502924 659.99880717 -93.04466167 661.25986525 -93.04428297 662.5591372 C-93.03146092 702.17531126 -92.91075996 741.79120142 -92.77353369 781.40711353 C-92.72828843 794.501872 -92.69002435 807.59657548 -92.67351389 820.69140482 C-92.67203459 821.86138106 -92.6705553 823.0313573 -92.66903118 824.23678736 C-92.66608989 826.5915122 -92.66315248 828.94623704 -92.66021897 831.30096188 C-92.63283556 852.77736267 -92.55172143 874.25260769 -92.38548256 895.72841157 C-92.30664877 906.05774948 -92.24882044 916.38590625 -92.25912094 926.71557617 C-92.28479192 964.63359954 -91.61622089 1001.24023159 -82.7338562 1038.26998901 C-82.48597002 1039.30535665 -82.48597002 1039.30535665 -82.23307603 1040.36164081 C-81.14376528 1044.87052014 -79.98810253 1049.3585143 -78.78779411 1053.83936882 C-78.49775719 1054.93506669 -78.20772027 1056.03076456 -77.90889435 1057.15966539 C-74.67789179 1068.48608047 -68.53562279 1077.09943421 -61 1086 C-60.33742188 1086.78632812 -59.67484375 1087.57265625 -58.9921875 1088.3828125 C-52.22284441 1096.21401333 -44.40859726 1102.60400331 -36.25 1108.9375 C-35.47084229 1109.54577637 -34.69168457 1110.15405273 -33.88891602 1110.78076172 C-28.46863494 1114.97289255 -22.95239618 1118.79703825 -17.08984375 1122.3515625 C-14.62055398 1124.29930134 -14.42431759 1124.95317321 -14 1128 C-14.31030273 1130.52001953 -14.31030273 1130.52001953 -14.93359375 1133.3828125 C-15.16594727 1134.45418457 -15.39830078 1135.52555664 -15.63769531 1136.62939453 C-15.90163086 1137.78294434 -16.16556641 1138.93649414 -16.4375 1140.125 C-16.84693848 1141.92686768 -16.84693848 1141.92686768 -17.26464844 1143.76513672 C-30.24213311 1199.34452095 -57.06926553 1250.41101318 -91 1296 C-91.80882129 1297.09618631 -92.61743343 1298.192527 -93.42578125 1299.2890625 C-101.29897443 1309.88920537 -109.42805338 1320.27650381 -118.01293945 1330.30957031 C-120.92944215 1333.71867266 -123.76124285 1337.18223622 -126.5625 1340.6875 C-130.32854608 1345.32263364 -134.40284805 1349.50496811 -138.671875 1353.67578125 C-140.67828388 1355.67882367 -142.54098875 1357.71603045 -144.375 1359.875 C-150.91382522 1367.49590031 -158.17454935 1374.59790505 -165.8203125 1381.1015625 C-168.13726121 1383.11955009 -170.38139355 1385.2026208 -172.62597656 1387.30029297 C-178.88138346 1393.14096675 -185.28331145 1398.68932696 -192 1404 C-192.61375488 1404.49161621 -193.22750977 1404.98323242 -193.85986328 1405.48974609 C-223.74133614 1429.40215085 -255.81149316 1448.98789227 -290 1466 C-290.85255371 1466.4321582 -291.70510742 1466.86431641 -292.58349609 1467.30957031 C-351.60292742 1497.21341616 -418.29960177 1512.38998056 -483.65753174 1519.73571777 C-485.16874729 1519.90621631 -486.67964277 1520.07958808 -488.19012451 1520.25646973 C-513.06652334 1523.16879371 -538.01425723 1523.31070339 -563.02849197 1523.36791611 C-565.57060656 1523.3748516 -568.11266241 1523.38650173 -570.65475464 1523.39907837 C-601.9281284 1523.53234812 -633.10600308 1521.97207168 -664.0625 1517.3125 C-665.33778061 1517.12550034 -665.33778061 1517.12550034 -666.63882446 1516.9347229 C-755.05774647 1503.89439452 -838.98094752 1469.67776927 -907 1411 C-907.73992188 1410.36191406 -908.47984375 1409.72382813 -909.2421875 1409.06640625 C-910.50903898 1407.96490687 -911.7661681 1406.85209221 -913.01171875 1405.7265625 C-914.526554 1404.411126 -916.10452017 1403.16802377 -917.70703125 1401.9609375 C-924.70156702 1396.42400429 -924.70156702 1396.42400429 -925.6328125 1391.98046875 C-925.62579369 1389.24664149 -925.37006094 1386.7024873 -925 1384 C-919.97292652 1387.29915299 -915.02248616 1390.6670517 -910.18212891 1394.23461914 C-881.50950627 1415.35626271 -851.12371562 1434.44039997 -819.06591797 1449.99365234 C-816.93485539 1451.03173317 -814.81339508 1452.08804363 -812.69140625 1453.14453125 C-762.3366062 1477.92055639 -707.53023357 1488.09446962 -652.109375 1493.23828125 C-651.43967178 1493.30153595 -650.76996857 1493.36479065 -650.07997131 1493.42996216 C-636.10580933 1494.67857516 -622.16423098 1495.16950453 -608.140625 1495.203125 C-606.90937519 1495.20736607 -606.90937519 1495.20736607 -605.65325165 1495.21169281 C-601.29226889 1495.22655297 -596.93131798 1495.23586011 -592.5703125 1495.24023438 C-589.05913655 1495.24457531 -585.5482124 1495.25831456 -582.03710938 1495.28125 C-503.42786475 1495.78363737 -425.74091889 1482.39911774 -314 1437 C-313.2363916 1436.63068359 -312.4727832 1436.26136719 -311.68603516 1435.88085938 C-307.77779857 1433.9834282 -303.8975282 1432.03781441 -300.03613281 1430.046875 C-298.59278763 1429.30478098 -297.14651465 1428.56836888 -295.69824219 1427.8359375 C-264.74152405 1412.17910034 -235.37209248 1393.31357031 -208 1372 C-206.8074846 1371.08308235 -205.61477502 1370.16641721 -204.421875 1369.25 C-192.3287349 1359.90680682 -180.8162135 1349.92434545 -169.63183594 1339.51416016 C-167.81578253 1337.82906692 -165.99003564 1336.15480555 -164.1640625 1334.48046875 C-155.63656387 1326.68425299 -155.63656387 1326.68425299 -147.8515625 1318.1640625 C-145.79193572 1315.75681939 -143.62873311 1313.47095204 -141.44946289 1311.17236328 C-134.47063306 1303.79150633 -128.13127603 1296.0913093 -122 1288 C-121.00018083 1286.69647586 -120.00017623 1285.39309394 -119 1284.08984375 C-85.01486562 1239.55554141 -62.60637599 1189.1867956 -49 1135 C-49.89054077 1134.58596924 -49.89054077 1134.58596924 -50.79907227 1134.16357422 C-52.88349466 1133.06159339 -54.44521979 1131.92664842 -56.21484375 1130.3828125 C-56.81232422 1129.86412598 -57.40980469 1129.34543945 -58.02539062 1128.81103516 C-58.65638672 1128.25464355 -59.28738281 1127.69825195 -59.9375 1127.125 C-60.59556641 1126.54927246 -61.25363281 1125.97354492 -61.93164062 1125.38037109 C-68.39462875 1119.70119877 -74.73991098 1113.90162024 -81 1108 C-81.67546875 1107.36707031 -82.3509375 1106.73414063 -83.046875 1106.08203125 C-88.17669227 1101.12869852 -92.6000106 1095.60067736 -97 1090 C-97.69480469 1089.12214844 -98.38960937 1088.24429687 -99.10546875 1087.33984375 C-121.36398208 1058.10670922 -121.5397312 1017.95497123 -122.50325394 982.6941433 C-122.54429391 981.26059038 -122.58553676 979.82704327 -122.62696572 978.39350154 C-122.73389614 974.66529908 -122.83727384 970.93700786 -122.9393704 967.2086702 C-122.99828159 965.06259991 -123.05799173 962.91655351 -123.11799711 960.77051356 C-123.81472046 935.81915311 -124.44431253 910.86593737 -125.06542969 885.91259766 C-125.08981983 884.93388804 -125.11420997 883.95517842 -125.13933921 882.94681093 C-126.4388882 830.7369012 -127.54713472 778.52679903 -128.30157471 726.30599976 C-128.31848127 725.13843886 -128.33538783 723.97087797 -128.35280671 722.76793644 C-128.71886209 697.41927772 -129.05693279 672.07032091 -129.36475293 646.72088943 C-129.51543733 634.32248762 -129.6721365 621.92416512 -129.83203125 609.52587891 C-129.84783173 608.29263997 -129.86363221 607.05940103 -129.87991149 605.78879122 C-130.39231504 566.01878569 -131.30770579 526.27088375 -132.43909123 486.51407127 C-133.60581674 445.43867644 -134.35021586 404.37541544 -134.59263579 363.28371095 C-134.62735443 357.42983761 -134.66668874 351.57600371 -134.70883942 345.72217941 C-134.72105921 343.99495167 -134.72105921 343.99495167 -134.73352587 342.23283044 C-134.86562211 325.11598922 -135.35205457 308.03407062 -136.03536224 290.93111038 C-137.04447565 265.1892508 -137.50319077 239.4923114 -136.97949219 213.73291016 C-136.96005877 212.72284845 -136.94062534 211.71278675 -136.92060303 210.67211712 C-135.57563611 146.31730706 -118.32061295 104.41124539 -71.68350557 59.48395879 C-49.131823 38.0374108 -25.13740741 18.32916837 0 0 Z " fill="#5B6DF2" transform="translate(3067,820)"/>
<path d="M0 0 C2.4371547 0.91361102 4.01349541 2.09807892 6.01245117 3.76367188 C7.10976562 4.67246094 7.10976562 4.67246094 8.22924805 5.59960938 C9.36136719 6.55480469 9.36136719 6.55480469 10.51635742 7.52929688 C11.26723633 8.150625 12.01811523 8.77195312 12.79174805 9.41210938 C16.74449315 12.70780186 20.51472265 16.06636125 24.07885742 19.77929688 C19.78979492 22.87695313 15.50073242 25.97460937 11.21166992 29.07226562 C9.92824707 29.99918213 9.92824707 29.99918213 8.61889648 30.94482422 C6.99584961 32.11702474 5.37280273 33.28922526 3.74975586 34.46142578 C2.26284734 35.53530415 0.77594945 36.60919724 -0.7109375 37.68310547 C-2.19538959 38.75516421 -3.67992862 39.82710258 -5.16455078 40.89892578 C-8.93049398 43.61798004 -12.69489839 46.33911737 -16.45629883 49.06445312 C-24.4447027 54.84915937 -32.46230077 60.58726478 -40.52905273 66.26220703 C-47.94461316 71.48614489 -55.2920744 76.80304276 -62.63745117 82.125 C-66.47993374 84.90847892 -70.32526469 87.6880118 -74.17114258 90.46679688 C-74.91372314 91.00344971 -75.65630371 91.54010254 -76.42138672 92.09301758 C-81.76982347 95.95535087 -87.13186008 99.79822488 -92.50805664 103.62182617 C-94.76489454 105.22866432 -96.99987808 106.84114102 -99.17895508 108.55273438 C-100.92114258 109.77929688 -100.92114258 109.77929688 -102.92114258 109.77929688 C-102.9620195 144.2514619 -102.99995557 178.72363 -103.03564453 213.19580078 C-103.03634317 213.87037201 -103.03704181 214.54494324 -103.03776162 215.23995602 C-103.11254473 287.52416992 -103.16830415 359.80836885 -103.18559265 432.09262085 C-103.18598153 433.69833892 -103.18637042 435.30405698 -103.18675933 436.90977505 C-103.19486472 470.6145902 -103.2002946 504.31940535 -103.20263398 538.02422139 C-103.203812 554.95539249 -103.20550411 571.88656352 -103.20768231 588.81773452 C-103.20800789 591.37172979 -103.2083188 593.92572507 -103.2086291 596.47972034 C-103.21353634 635.80533057 -103.22946569 675.13089836 -103.27734375 714.45648193 C-103.27837287 715.30194761 -103.279402 716.14741329 -103.28046231 717.01849915 C-103.29712173 730.6498159 -103.3147066 744.28113146 -103.33241432 757.91244688 C-103.38340702 797.177257 -103.42755078 836.44202087 -103.42641735 875.70686913 C-103.42639737 876.51440873 -103.4263774 877.32194833 -103.42635681 878.15395883 C-103.42579535 895.88190002 -103.42171483 913.60983859 -103.41430284 931.33777819 C-103.41138245 938.47102858 -103.40896858 945.60427912 -103.40672874 952.73752975 C-103.40647139 953.51823034 -103.40621403 954.29893093 -103.40594887 955.10328911 C-103.39791021 980.25289263 -103.43109535 1005.40223426 -103.48592871 1030.55177305 C-103.5409811 1055.88839204 -103.55555081 1081.2246857 -103.51395612 1106.56134059 C-103.50821643 1110.06374637 -103.50294029 1113.56615272 -103.49794388 1117.06855965 C-103.49644959 1118.09840368 -103.49644959 1118.09840368 -103.49492512 1119.14905265 C-103.48124972 1129.35076777 -103.50391773 1139.55196317 -103.54818916 1149.75358009 C-103.59723686 1161.10504281 -103.60386859 1172.45545217 -103.5521366 1183.8069239 C-103.52743707 1189.52331988 -103.52334548 1195.23768821 -103.57657877 1200.95393498 C-103.62463826 1206.15788792 -103.61256109 1211.35815154 -103.55310166 1216.56195508 C-103.54219324 1218.42961224 -103.55293312 1220.29755794 -103.58833902 1222.16491133 C-103.74712713 1231.13724512 -103.50009452 1237.85936941 -97.37760875 1244.8235931 C-95.16164814 1247.09626085 -92.85581773 1249.23479021 -90.47690288 1251.33518285 C-88.1996625 1253.44900126 -86.32254337 1255.82899919 -84.42114258 1258.27929688 C-80.93551705 1262.63632879 -77.24322149 1266.72052959 -73.42114258 1270.77929688 C-68.81536812 1275.67029131 -64.49500587 1280.68696776 -60.29614258 1285.93554688 C-57.45649802 1289.3356476 -54.45726159 1292.55516132 -51.42114258 1295.77929688 C-46.81536812 1300.67029131 -42.49500587 1305.68696776 -38.29614258 1310.93554688 C-35.45649802 1314.3356476 -32.45726159 1317.55516132 -29.42114258 1320.77929688 C-24.81536812 1325.67029131 -20.49500587 1330.68696776 -16.29614258 1335.93554688 C-13.45649802 1339.3356476 -10.45726159 1342.55516132 -7.42114258 1345.77929688 C-2.81536812 1350.67029131 1.50499413 1355.68696776 5.70385742 1360.93554688 C8.54350198 1364.3356476 11.54273841 1367.55516132 14.57885742 1370.77929688 C19.18463188 1375.67029131 23.50499413 1380.68696776 27.70385742 1385.93554688 C30.54350198 1389.3356476 33.54273841 1392.55516132 36.57885742 1395.77929688 C41.18463188 1400.67029131 45.50499413 1405.68696776 49.70385742 1410.93554688 C52.54350198 1414.3356476 55.54273841 1417.55516132 58.57885742 1420.77929688 C63.17886855 1425.66417108 67.49461984 1430.6739999 71.68823242 1435.91601562 C75.1277472 1440.03556519 78.79000993 1443.93443986 82.4753418 1447.83398438 C92.07885742 1458.01630967 92.07885742 1458.01630967 92.07885742 1460.77929688 C-104.60114258 1460.77929688 -301.28114258 1460.77929688 -503.92114258 1460.77929688 C-507.55114258 1453.51929687 -511.18114258 1446.25929688 -514.92114258 1438.77929688 C-516.24114258 1436.46929688 -517.56114258 1434.15929688 -518.92114258 1431.77929688 C-518.92114258 1431.11929688 -518.92114258 1430.45929688 -518.92114258 1429.77929688 C-251.62114258 1429.28429688 -251.62114258 1429.28429688 21.07885742 1428.77929688 C14.14885742 1421.35429687 14.14885742 1421.35429687 7.07885742 1413.77929688 C2.57885742 1408.27929688 2.57885742 1408.27929688 0.49291992 1405.66601562 C-3.69648445 1400.65635571 -8.22641502 1395.96159461 -12.70239258 1391.20898438 C-16.65430275 1387.01120765 -20.4446003 1382.69639182 -24.17553711 1378.30175781 C-30.71518595 1370.60137241 -37.37205475 1363.05520772 -44.25317383 1355.65820312 C-48.48860608 1351.08790508 -52.55640449 1346.38765024 -56.58911133 1341.63867188 C-62.66277138 1334.4981933 -68.8684203 1327.52162907 -75.25317383 1320.65820312 C-79.48860608 1316.08790508 -83.55640449 1311.38765024 -87.58911133 1306.63867188 C-93.66277138 1299.4981933 -99.8684203 1292.52162907 -106.25317383 1285.65820312 C-109.55460696 1282.09574892 -112.75846119 1278.46478886 -115.92114258 1274.77929688 C-116.37521484 1274.25158691 -116.82928711 1273.72387695 -117.29711914 1273.18017578 C-119.88578682 1270.17156868 -122.4720182 1267.16087016 -125.05395508 1264.14648438 C-125.48595215 1263.6422998 -125.91794922 1263.13811523 -126.36303711 1262.61865234 C-126.87721191 1262.01166504 -127.39138672 1261.40467773 -127.92114258 1260.77929688 C-128.76494842 1259.92044279 -129.60875426 1259.0615887 -130.47812997 1258.17670872 C-133.45387297 1254.57595863 -133.62756765 1251.12222467 -133.56744975 1246.58135182 C-133.57657326 1245.76653893 -133.58569677 1244.95172605 -133.59509675 1244.11222186 C-133.61966672 1241.3706297 -133.60861161 1238.63033749 -133.59783459 1235.88867283 C-133.60820562 1233.89938345 -133.62075494 1231.91010444 -133.63529018 1229.92084113 C-133.66901447 1224.42531913 -133.67143094 1218.93015253 -133.66890349 1213.43454382 C-133.67154774 1207.46667841 -133.70283674 1201.49895294 -133.73043948 1195.5311603 C-133.77476829 1185.06197097 -133.8003443 1174.59284788 -133.8132515 1164.12358284 C-133.82714478 1152.88812742 -133.85166935 1141.65277222 -133.88913536 1130.41736984 C-133.89148939 1129.70812382 -133.89384342 1128.99887779 -133.89626879 1128.26813946 C-133.90587723 1125.37954376 -133.91553941 1122.49094825 -133.92527572 1119.60235298 C-134.04308808 1084.57952359 -134.10684689 1049.55666059 -134.16003021 1014.53368249 C-134.17733164 1003.17681365 -134.19657654 991.81994934 -134.21709847 980.46308589 C-134.21926705 979.26132781 -134.21926705 979.26132781 -134.22147943 978.03529179 C-134.22732907 974.79403161 -134.23318128 971.55277143 -134.23903892 968.31151126 C-134.33907209 912.86841479 -134.4245202 857.4253061 -134.4695419 801.98213569 C-134.47308855 797.62704855 -134.47670976 793.27196146 -134.48033022 788.91687438 C-134.4814066 787.62100724 -134.4814066 787.62100724 -134.48250472 786.29896098 C-134.48978223 777.54631677 -134.49714023 768.79367264 -134.50459849 760.04102858 C-134.5060903 758.28609716 -134.50757445 756.53116573 -134.50905097 754.77623429 C-134.55647972 698.41484939 -134.68300535 642.05407966 -134.86391048 585.6929731 C-134.99385049 545.19714607 -135.11376037 504.70144309 -135.15448475 464.20541286 C-135.15532692 463.3725559 -135.1561691 462.53969894 -135.15703679 461.68160389 C-135.17529269 443.39801689 -135.1873367 425.11443081 -135.19357246 406.83083592 C-135.19616938 399.47417779 -135.1995451 392.11752005 -135.20313454 384.76086235 C-135.20350473 383.9557246 -135.20387493 383.15058685 -135.20425635 382.32105099 C-135.21652748 356.38827754 -135.29625063 330.45625559 -135.41066948 304.52374823 C-135.5255307 278.40136638 -135.57066705 252.27983914 -135.51996422 226.1572257 C-135.51296594 222.546096 -135.50674091 218.93496534 -135.50097847 215.32383347 C-135.49923997 214.2620293 -135.49923997 214.2620293 -135.49746634 213.17877455 C-135.48114379 201.97759854 -135.53868594 190.77807366 -135.62716058 179.57728649 C-135.71266369 168.55833895 -135.71763239 157.54121332 -135.64306331 146.52205285 C-135.60545146 140.62792833 -135.60265109 134.7394588 -135.69696649 128.84584296 C-136.20923879 94.79630278 -136.20923879 94.79630278 -130.76956405 86.49639957 C-125.763484 81.42601342 -120.21210281 78.45455397 -113.61658809 75.90864771 C-109.50881992 74.18755508 -106.10489543 71.66859941 -102.54614258 69.02929688 C-101.27059505 68.14460462 -99.99234157 67.2637878 -98.71020508 66.38867188 C-98.08791016 65.96005859 -97.46561523 65.53144531 -96.82446289 65.08984375 C-93.52467302 62.81774626 -90.22277357 60.54871774 -86.92114258 58.27929688 C-85.58779975 57.36264401 -84.25446641 56.44597737 -82.92114258 55.52929688 C-42.92114258 28.02929688 -42.92114258 28.02929688 -40.92041016 26.65380859 C-39.58949923 25.73879717 -38.25860724 24.82375819 -36.92773438 23.90869141 C-33.55749454 21.59147106 -30.18690824 19.27475755 -26.81567383 16.95898438 C-26.13923828 16.49395508 -25.46280273 16.02892578 -24.76586914 15.54980469 C-23.42387495 14.62827191 -22.08079531 13.7083176 -20.73657227 12.79003906 C-17.51501172 10.58530854 -14.32006706 8.35490664 -11.16723633 6.05273438 C-10.57644287 5.62686035 -9.98564941 5.20098633 -9.37695312 4.76220703 C-7.77581898 3.60495393 -6.18406816 2.43474972 -4.59301758 1.26367188 C-1.92114258 -0.22070312 -1.92114258 -0.22070312 0 0 Z " fill="#5B6DF2" transform="translate(1884.921142578125,849.220703125)"/>
<path d="M0 0 C9.9 0 19.8 0 30 0 C28.87538245 13.49541057 28.87538245 13.49541057 28.0637207 18.52319336 C27.88274338 19.66006088 27.70176605 20.79692841 27.51530457 21.96824646 C27.32076187 23.16337357 27.12621918 24.35850067 26.92578125 25.58984375 C26.61251583 27.55394345 26.29926176 29.51804499 25.98649693 31.48222446 C25.65672487 33.54996777 25.32513213 35.61741286 24.9932251 37.68481445 C11.62752062 121.04983086 -0.02455639 204.83455537 42 368 C42.37705078 368.77859375 42.75410156 369.5571875 43.14257812 370.359375 C54.63163824 393.84293611 69.90466899 415.16991995 88 434 C88.56734863 434.59458008 89.13469727 435.18916016 89.71923828 435.80175781 C97.7267138 444.15158036 105.94804813 451.80262181 115.24511719 458.69384766 C117.01416406 460.01054226 118.76156142 461.35248435 120.5078125 462.69921875 C135.59187817 474.20025384 152.15477141 483.35918326 169 492 C169 492.66 169 493.32 169 494 C133.45453738 497.719874 92.15591181 472.09401506 65.25 450.5 C59.32682482 445.52239195 53.63332493 440.30099929 48 435 C47.34128906 434.38382813 46.68257812 433.76765625 46.00390625 433.1328125 C40.85420834 428.16151059 36.40579648 422.63041084 32 417 C31.57170898 416.4534375 31.14341797 415.906875 30.70214844 415.34375 C-13.73402771 358.13257954 -24.75277423 284.2275845 -24.38672256 213.72528839 C-24.37477514 211.26621875 -24.36782619 208.80717455 -24.36190796 206.3480835 C-24.28892832 180.13580676 -23.53773633 154.10278033 -21 128 C-20.82650415 126.15821781 -20.65316798 124.31642058 -20.47998047 122.47460938 C-12.32590608 36.97771823 -12.32590608 36.97771823 0 0 Z " fill="#5B6DF2" transform="translate(2332,1639)"/>
</svg>
